<svg width="169" height="50" viewBox="0 0 169 50" fill="none" xmlns="http://www.w3.org/2000/svg">
<path d="M40 0H10C4.47715 0 0 4.47715 0 10V40C0 45.5228 4.47715 50 10 50H40C45.5228 50 50 45.5228 50 40V10C50 4.47715 45.5228 0 40 0Z" fill="#E11D48"/>
<path d="M68.0745 27.8677V16.6484H72.0052V27.8677C72.0052 28.9608 71.7544 29.9079 71.2527 30.709C70.7586 31.5101 70.0848 32.1315 69.2313 32.5732C68.3852 33.0075 67.4344 33.2246 66.3787 33.2246C65.2856 33.2246 64.3123 33.0412 63.4588 32.6743C62.6128 32.3075 61.9464 31.7422 61.4598 30.9785C60.9806 30.2148 60.741 29.2415 60.741 28.0586H64.6941C64.6941 28.6126 64.7578 29.0469 64.8851 29.3613C65.0123 29.6683 65.1995 29.8854 65.4466 30.0127C65.7011 30.1325 66.0118 30.1924 66.3787 30.1924C66.7381 30.1924 67.0413 30.1025 67.2884 29.9229C67.5429 29.7357 67.7376 29.4699 67.8724 29.1255C68.0071 28.7736 68.0745 28.3543 68.0745 27.8677ZM76.1582 27.0479V26.812C76.1582 25.9211 76.2855 25.1012 76.54 24.3525C76.7946 23.5964 77.1689 22.9412 77.6631 22.3872C78.1572 21.8332 78.7674 21.4027 79.4937 21.0957C80.2199 20.7812 81.0584 20.624 82.0093 20.624C82.9676 20.624 83.8099 20.7812 84.5361 21.0957C85.2699 21.4027 85.8838 21.8332 86.3779 22.3872C86.8721 22.9412 87.2464 23.5964 87.501 24.3525C87.7555 25.1012 87.8828 25.9211 87.8828 26.812V27.0479C87.8828 27.9313 87.7555 28.7511 87.501 29.5073C87.2464 30.256 86.8721 30.9111 86.3779 31.4727C85.8838 32.0267 85.2736 32.4572 84.5474 32.7642C83.8211 33.0711 82.9826 33.2246 82.0317 33.2246C81.0809 33.2246 80.2386 33.0711 79.5049 32.7642C78.7712 32.4572 78.1572 32.0267 77.6631 31.4727C77.1689 30.9111 76.7946 30.256 76.54 29.5073C76.2855 28.7511 76.1582 27.9313 76.1582 27.0479ZM79.9429 26.812V27.0479C79.9429 27.5046 79.9766 27.9313 80.0439 28.3281C80.1113 28.7249 80.2236 29.0731 80.3809 29.3726C80.5381 29.6646 80.7515 29.8929 81.021 30.0576C81.2905 30.2223 81.6274 30.3047 82.0317 30.3047C82.4285 30.3047 82.758 30.2223 83.02 30.0576C83.2896 29.8929 83.5029 29.6646 83.6602 29.3726C83.8174 29.0731 83.9297 28.7249 83.9971 28.3281C84.0645 27.9313 84.0981 27.5046 84.0981 27.0479V26.812C84.0981 26.3703 84.0645 25.9548 83.9971 25.5654C83.9297 25.1686 83.8174 24.8205 83.6602 24.521C83.5029 24.214 83.2896 23.9744 83.02 23.8022C82.7505 23.63 82.4136 23.5439 82.0093 23.5439C81.6125 23.5439 81.2793 23.63 81.0098 23.8022C80.7477 23.9744 80.5381 24.214 80.3809 24.521C80.2236 24.8205 80.1113 25.1686 80.0439 25.5654C79.9766 25.9548 79.9429 26.3703 79.9429 26.812ZM91.9011 15.75H95.6857V30.0127L95.2927 33H91.9011V15.75ZM103.143 26.7896V27.0254C103.143 27.9463 103.049 28.7848 102.862 29.541C102.675 30.2972 102.387 30.9523 101.997 31.5063C101.608 32.0529 101.118 32.4759 100.526 32.7754C99.9346 33.0749 99.2346 33.2246 98.426 33.2246C97.6923 33.2246 97.0633 33.0674 96.5393 32.7529C96.0152 32.431 95.5772 31.9893 95.2253 31.4277C94.8734 30.8587 94.5889 30.2036 94.3718 29.4624C94.1547 28.7137 93.9825 27.9126 93.8552 27.0591V26.7783C93.9825 25.9323 94.1547 25.1387 94.3718 24.3975C94.5889 23.6488 94.8734 22.9937 95.2253 22.4321C95.5772 21.8631 96.0114 21.4214 96.528 21.1069C97.0521 20.785 97.6773 20.624 98.4035 20.624C99.2196 20.624 99.9234 20.7775 100.515 21.0845C101.114 21.3914 101.608 21.8219 101.997 22.376C102.387 22.93 102.675 23.5814 102.862 24.3301C103.049 25.0788 103.143 25.8986 103.143 26.7896ZM99.3581 27.0254V26.7896C99.3581 26.3478 99.3319 25.9323 99.2795 25.543C99.2271 25.1536 99.1335 24.8092 98.9987 24.5098C98.864 24.2103 98.673 23.9744 98.426 23.8022C98.1789 23.63 97.857 23.5439 97.4602 23.5439C97.0559 23.5439 96.7152 23.6113 96.4382 23.7461C96.1687 23.8809 95.9515 24.0755 95.7868 24.3301C95.6296 24.5771 95.5173 24.8841 95.4499 25.251C95.3825 25.6104 95.3526 26.0184 95.3601 26.4751V27.3623C95.3451 27.9837 95.4012 28.5153 95.5285 28.957C95.6558 29.3988 95.8767 29.7357 96.1911 29.9678C96.5056 30.1999 96.9361 30.3159 97.4826 30.3159C97.8869 30.3159 98.2126 30.2373 98.4597 30.0801C98.7142 29.9229 98.9051 29.6982 99.0324 29.4062C99.1597 29.1143 99.2458 28.7661 99.2907 28.3618C99.3356 27.9575 99.3581 27.512 99.3581 27.0254ZM115.225 16.6484V33H111.283V16.6484H115.225ZM120.143 16.6484V19.6919H106.476V16.6484H120.143ZM128.339 29.9453V24.9365C128.339 24.5921 128.291 24.2964 128.193 24.0493C128.096 23.8022 127.943 23.6113 127.733 23.4766C127.523 23.3343 127.243 23.2632 126.891 23.2632C126.606 23.2632 126.363 23.3118 126.161 23.4092C125.959 23.5065 125.805 23.6525 125.7 23.8472C125.595 24.0418 125.543 24.2889 125.543 24.5884H121.758C121.758 24.0269 121.882 23.5065 122.129 23.0273C122.384 22.5407 122.743 22.1177 123.207 21.7583C123.679 21.3989 124.24 21.1219 124.892 20.9272C125.551 20.7251 126.284 20.624 127.093 20.624C128.059 20.624 128.92 20.785 129.676 21.1069C130.44 21.4289 131.042 21.9118 131.484 22.5557C131.926 23.1921 132.147 23.9932 132.147 24.959V29.9341C132.147 30.7277 132.192 31.3304 132.281 31.7422C132.371 32.1465 132.498 32.5021 132.663 32.8091V33H128.867C128.688 32.6257 128.553 32.1689 128.463 31.6299C128.381 31.0833 128.339 30.5218 128.339 29.9453ZM128.8 25.5767L128.822 27.5981H127.149C126.797 27.5981 126.498 27.6468 126.251 27.7441C126.011 27.8415 125.816 27.9762 125.667 28.1484C125.524 28.3132 125.42 28.5003 125.352 28.71C125.292 28.9196 125.262 29.1405 125.262 29.3726C125.262 29.5972 125.315 29.7993 125.42 29.979C125.532 30.1512 125.682 30.286 125.869 30.3833C126.056 30.4806 126.266 30.5293 126.498 30.5293C126.917 30.5293 127.273 30.4507 127.565 30.2935C127.864 30.1287 128.092 29.9303 128.25 29.6982C128.407 29.4661 128.485 29.249 128.485 29.0469L129.317 30.5967C129.167 30.8962 128.995 31.1994 128.8 31.5063C128.613 31.8133 128.377 32.0978 128.092 32.3599C127.815 32.6144 127.475 32.8241 127.07 32.9888C126.666 33.146 126.176 33.2246 125.599 33.2246C124.851 33.2246 124.162 33.0711 123.533 32.7642C122.911 32.4572 122.414 32.0304 122.039 31.4839C121.665 30.9299 121.478 30.2935 121.478 29.5747C121.478 28.9458 121.59 28.3843 121.815 27.8901C122.047 27.396 122.395 26.9767 122.859 26.6323C123.323 26.2879 123.915 26.0259 124.633 25.8462C125.352 25.6665 126.198 25.5767 127.171 25.5767H128.8ZM140.545 15.75V33H136.749V15.75H140.545ZM149.179 15.75V33H145.383V15.75H149.179ZM157.543 31.5737L160.688 20.8486H164.753L159.868 34.8081C159.763 35.1151 159.625 35.4445 159.452 35.7964C159.28 36.1558 159.044 36.4964 158.745 36.8184C158.445 37.1403 158.06 37.4023 157.588 37.6045C157.124 37.8066 156.547 37.9077 155.859 37.9077C155.492 37.9077 155.222 37.889 155.05 37.8516C154.885 37.8216 154.631 37.7655 154.286 37.6831V34.9766C154.384 34.9766 154.466 34.9766 154.533 34.9766C154.608 34.9766 154.691 34.9766 154.78 34.9766C155.185 34.9766 155.507 34.9354 155.746 34.853C155.993 34.7707 156.181 34.6509 156.308 34.4937C156.443 34.3364 156.547 34.1455 156.622 33.9209L157.543 31.5737ZM156.746 20.8486L159.138 29.3501L159.553 33.3594H157.015L152.692 20.8486H156.746Z" fill="#E11D48"/>
<path d="M28.2227 11H34.0821V30.6875C34.0821 32.4974 33.6784 34.099 32.8711 35.4922C32.0769 36.8724 30.9506 37.9401 29.4922 38.6953C28.0339 39.4505 26.3868 39.8281 24.5508 39.8281C21.543 39.8281 19.1993 39.0664 17.5196 37.543C15.8399 36.0065 15 33.8385 15 31.0391H20.8985C20.8985 32.4323 21.1915 33.4609 21.7774 34.125C22.3633 34.7891 23.2878 35.1211 24.5508 35.1211C25.6706 35.1211 26.5626 34.737 27.2266 33.9687C27.8907 33.2005 28.2227 32.1068 28.2227 30.6875V11Z" fill="white"/>
</svg>
